<mxfile host="app.diagrams.net" agent="Mozilla/5.0 (Windows NT 10.0; Win64; x64) AppleWebKit/537.36 (KHTML, like Gecko) Chrome/131.0.0.0 Safari/537.36" version="25.0.3">
  <diagram name="Page-1" id="BBE_-L0fibq4a-UWosR0">
    <mxGraphModel dx="1687" dy="878" grid="1" gridSize="10" guides="1" tooltips="1" connect="1" arrows="1" fold="1" page="1" pageScale="1" pageWidth="850" pageHeight="1100" math="0" shadow="0">
      <root>
        <mxCell id="0" />
        <mxCell id="1" parent="0" />
        <mxCell id="Gr86trx3XvMRgJGgivtc-1" style="edgeStyle=orthogonalEdgeStyle;rounded=0;orthogonalLoop=1;jettySize=auto;html=1;entryX=0.5;entryY=0;entryDx=0;entryDy=0;" edge="1" parent="1" source="Gr86trx3XvMRgJGgivtc-2" target="Gr86trx3XvMRgJGgivtc-5">
          <mxGeometry relative="1" as="geometry" />
        </mxCell>
        <mxCell id="Gr86trx3XvMRgJGgivtc-2" value="&lt;font style=&quot;font-size: 24px;&quot;&gt;start&lt;/font&gt;" style="strokeWidth=2;html=1;shape=mxgraph.flowchart.start_1;whiteSpace=wrap;" vertex="1" parent="1">
          <mxGeometry x="227" y="40" width="100" height="60" as="geometry" />
        </mxCell>
        <mxCell id="Gr86trx3XvMRgJGgivtc-3" value="output&lt;div&gt;&quot;Fount in&quot;, result&lt;/div&gt;" style="shape=parallelogram;perimeter=parallelogramPerimeter;whiteSpace=wrap;html=1;fixedSize=1;" vertex="1" parent="1">
          <mxGeometry x="140" y="340" width="275" height="50" as="geometry" />
        </mxCell>
        <mxCell id="Gr86trx3XvMRgJGgivtc-4" style="edgeStyle=orthogonalEdgeStyle;rounded=0;orthogonalLoop=1;jettySize=auto;html=1;entryX=0.5;entryY=0;entryDx=0;entryDy=0;" edge="1" parent="1" source="Gr86trx3XvMRgJGgivtc-5" target="Gr86trx3XvMRgJGgivtc-7">
          <mxGeometry relative="1" as="geometry" />
        </mxCell>
        <mxCell id="Gr86trx3XvMRgJGgivtc-5" value="RealData[6] = {1, 2, 4, 5, 8, 9}" style="rounded=1;whiteSpace=wrap;html=1;absoluteArcSize=1;arcSize=14;strokeWidth=2;" vertex="1" parent="1">
          <mxGeometry x="187" y="135" width="180" height="40" as="geometry" />
        </mxCell>
        <mxCell id="Gr86trx3XvMRgJGgivtc-6" style="edgeStyle=orthogonalEdgeStyle;rounded=0;orthogonalLoop=1;jettySize=auto;html=1;entryX=0.5;entryY=0;entryDx=0;entryDy=0;" edge="1" parent="1" source="Gr86trx3XvMRgJGgivtc-7" target="Gr86trx3XvMRgJGgivtc-3">
          <mxGeometry relative="1" as="geometry" />
        </mxCell>
        <mxCell id="Gr86trx3XvMRgJGgivtc-7" value="result = BinarySearch&lt;span style=&quot;white-space: pre;&quot;&gt;&#x9;&lt;/span&gt;(RealData, 6, 8)" style="verticalLabelPosition=bottom;verticalAlign=top;html=1;shape=process;whiteSpace=wrap;rounded=1;size=0.14;arcSize=6;" vertex="1" parent="1">
          <mxGeometry x="197" y="220" width="160" height="50" as="geometry" />
        </mxCell>
        <mxCell id="Gr86trx3XvMRgJGgivtc-15" style="edgeStyle=orthogonalEdgeStyle;rounded=0;orthogonalLoop=1;jettySize=auto;html=1;entryX=0.5;entryY=0;entryDx=0;entryDy=0;" edge="1" parent="1" source="Gr86trx3XvMRgJGgivtc-8" target="Gr86trx3XvMRgJGgivtc-11">
          <mxGeometry relative="1" as="geometry" />
        </mxCell>
        <mxCell id="Gr86trx3XvMRgJGgivtc-8" value="&lt;font style=&quot;font-size: 16px;&quot;&gt;BinarySearch(data[], n, find)&lt;/font&gt;" style="strokeWidth=2;html=1;shape=mxgraph.flowchart.start_1;whiteSpace=wrap;" vertex="1" parent="1">
          <mxGeometry x="510" y="40" width="250" height="80" as="geometry" />
        </mxCell>
        <mxCell id="Gr86trx3XvMRgJGgivtc-17" style="edgeStyle=orthogonalEdgeStyle;rounded=0;orthogonalLoop=1;jettySize=auto;html=1;entryX=0.5;entryY=0;entryDx=0;entryDy=0;" edge="1" parent="1" source="Gr86trx3XvMRgJGgivtc-9" target="Gr86trx3XvMRgJGgivtc-12">
          <mxGeometry relative="1" as="geometry" />
        </mxCell>
        <mxCell id="Gr86trx3XvMRgJGgivtc-9" value="while (left &amp;lt;= right)" style="rhombus;whiteSpace=wrap;html=1;" vertex="1" parent="1">
          <mxGeometry x="564" y="230" width="142" height="70" as="geometry" />
        </mxCell>
        <mxCell id="Gr86trx3XvMRgJGgivtc-16" style="edgeStyle=orthogonalEdgeStyle;rounded=0;orthogonalLoop=1;jettySize=auto;html=1;entryX=0.5;entryY=0;entryDx=0;entryDy=0;" edge="1" parent="1" source="Gr86trx3XvMRgJGgivtc-11" target="Gr86trx3XvMRgJGgivtc-9">
          <mxGeometry relative="1" as="geometry" />
        </mxCell>
        <mxCell id="Gr86trx3XvMRgJGgivtc-11" value="left = 0, right = n - 1, output = -1" style="rounded=1;whiteSpace=wrap;html=1;absoluteArcSize=1;arcSize=14;strokeWidth=2;" vertex="1" parent="1">
          <mxGeometry x="545" y="160" width="180" height="40" as="geometry" />
        </mxCell>
        <mxCell id="Gr86trx3XvMRgJGgivtc-18" style="edgeStyle=orthogonalEdgeStyle;rounded=0;orthogonalLoop=1;jettySize=auto;html=1;entryX=0.5;entryY=0;entryDx=0;entryDy=0;" edge="1" parent="1" source="Gr86trx3XvMRgJGgivtc-12" target="Gr86trx3XvMRgJGgivtc-13">
          <mxGeometry relative="1" as="geometry" />
        </mxCell>
        <mxCell id="Gr86trx3XvMRgJGgivtc-12" value="mid = left + (right - left) / 2" style="rounded=1;whiteSpace=wrap;html=1;absoluteArcSize=1;arcSize=14;strokeWidth=2;" vertex="1" parent="1">
          <mxGeometry x="725" y="300" width="160" height="40" as="geometry" />
        </mxCell>
        <mxCell id="Gr86trx3XvMRgJGgivtc-39" style="edgeStyle=orthogonalEdgeStyle;rounded=0;orthogonalLoop=1;jettySize=auto;html=1;entryX=0.5;entryY=0;entryDx=0;entryDy=0;" edge="1" parent="1" source="Gr86trx3XvMRgJGgivtc-13" target="Gr86trx3XvMRgJGgivtc-29">
          <mxGeometry relative="1" as="geometry" />
        </mxCell>
        <mxCell id="Gr86trx3XvMRgJGgivtc-43" value="false" style="edgeLabel;html=1;align=center;verticalAlign=middle;resizable=0;points=[];" vertex="1" connectable="0" parent="Gr86trx3XvMRgJGgivtc-39">
          <mxGeometry x="0.1148" y="2" relative="1" as="geometry">
            <mxPoint as="offset" />
          </mxGeometry>
        </mxCell>
        <mxCell id="Gr86trx3XvMRgJGgivtc-40" style="edgeStyle=orthogonalEdgeStyle;rounded=0;orthogonalLoop=1;jettySize=auto;html=1;entryX=0.5;entryY=0;entryDx=0;entryDy=0;" edge="1" parent="1" source="Gr86trx3XvMRgJGgivtc-13" target="Gr86trx3XvMRgJGgivtc-14">
          <mxGeometry relative="1" as="geometry" />
        </mxCell>
        <mxCell id="Gr86trx3XvMRgJGgivtc-42" value="true" style="edgeLabel;html=1;align=center;verticalAlign=middle;resizable=0;points=[];" vertex="1" connectable="0" parent="Gr86trx3XvMRgJGgivtc-40">
          <mxGeometry x="0.2061" relative="1" as="geometry">
            <mxPoint as="offset" />
          </mxGeometry>
        </mxCell>
        <mxCell id="Gr86trx3XvMRgJGgivtc-13" value="if( data[mid] == find" style="rhombus;whiteSpace=wrap;html=1;" vertex="1" parent="1">
          <mxGeometry x="734" y="380" width="142" height="70" as="geometry" />
        </mxCell>
        <mxCell id="Gr86trx3XvMRgJGgivtc-50" style="edgeStyle=orthogonalEdgeStyle;rounded=0;orthogonalLoop=1;jettySize=auto;html=1;entryX=1;entryY=1;entryDx=0;entryDy=0;" edge="1" parent="1" source="Gr86trx3XvMRgJGgivtc-14" target="Gr86trx3XvMRgJGgivtc-9">
          <mxGeometry relative="1" as="geometry" />
        </mxCell>
        <mxCell id="Gr86trx3XvMRgJGgivtc-14" value="output = mid" style="rounded=1;whiteSpace=wrap;html=1;absoluteArcSize=1;arcSize=14;strokeWidth=2;" vertex="1" parent="1">
          <mxGeometry x="725" y="540" width="160" height="40" as="geometry" />
        </mxCell>
        <mxCell id="Gr86trx3XvMRgJGgivtc-22" value="&lt;font style=&quot;font-size: 24px;&quot;&gt;end&lt;/font&gt;" style="strokeWidth=2;html=1;shape=mxgraph.flowchart.start_1;whiteSpace=wrap;" vertex="1" parent="1">
          <mxGeometry x="227.5" y="430" width="100" height="60" as="geometry" />
        </mxCell>
        <mxCell id="Gr86trx3XvMRgJGgivtc-23" style="edgeStyle=orthogonalEdgeStyle;rounded=0;orthogonalLoop=1;jettySize=auto;html=1;entryX=0.5;entryY=0;entryDx=0;entryDy=0;entryPerimeter=0;" edge="1" parent="1" source="Gr86trx3XvMRgJGgivtc-3" target="Gr86trx3XvMRgJGgivtc-22">
          <mxGeometry relative="1" as="geometry" />
        </mxCell>
        <mxCell id="Gr86trx3XvMRgJGgivtc-24" value="&lt;font style=&quot;font-size: 16px;&quot;&gt;return output&lt;/font&gt;" style="strokeWidth=2;html=1;shape=mxgraph.flowchart.start_1;whiteSpace=wrap;" vertex="1" parent="1">
          <mxGeometry x="585" y="650" width="100" height="60" as="geometry" />
        </mxCell>
        <mxCell id="Gr86trx3XvMRgJGgivtc-32" style="edgeStyle=orthogonalEdgeStyle;rounded=0;orthogonalLoop=1;jettySize=auto;html=1;entryX=0.5;entryY=0;entryDx=0;entryDy=0;" edge="1" parent="1" source="Gr86trx3XvMRgJGgivtc-29" target="Gr86trx3XvMRgJGgivtc-31">
          <mxGeometry relative="1" as="geometry" />
        </mxCell>
        <mxCell id="Gr86trx3XvMRgJGgivtc-46" style="edgeStyle=orthogonalEdgeStyle;rounded=0;orthogonalLoop=1;jettySize=auto;html=1;entryX=0.5;entryY=0;entryDx=0;entryDy=0;" edge="1" parent="1" source="Gr86trx3XvMRgJGgivtc-29" target="Gr86trx3XvMRgJGgivtc-45">
          <mxGeometry relative="1" as="geometry" />
        </mxCell>
        <mxCell id="Gr86trx3XvMRgJGgivtc-48" value="false" style="edgeLabel;html=1;align=center;verticalAlign=middle;resizable=0;points=[];" vertex="1" connectable="0" parent="Gr86trx3XvMRgJGgivtc-46">
          <mxGeometry x="-0.5772" y="2" relative="1" as="geometry">
            <mxPoint as="offset" />
          </mxGeometry>
        </mxCell>
        <mxCell id="Gr86trx3XvMRgJGgivtc-29" value="if( data[mid] &amp;lt; find" style="rhombus;whiteSpace=wrap;html=1;" vertex="1" parent="1">
          <mxGeometry x="923" y="440" width="142" height="70" as="geometry" />
        </mxCell>
        <mxCell id="Gr86trx3XvMRgJGgivtc-52" style="edgeStyle=orthogonalEdgeStyle;rounded=0;orthogonalLoop=1;jettySize=auto;html=1;" edge="1" parent="1" source="Gr86trx3XvMRgJGgivtc-31">
          <mxGeometry relative="1" as="geometry">
            <mxPoint x="670" y="279.9999999999999" as="targetPoint" />
          </mxGeometry>
        </mxCell>
        <mxCell id="Gr86trx3XvMRgJGgivtc-31" value="left = mid + 1" style="rounded=1;whiteSpace=wrap;html=1;absoluteArcSize=1;arcSize=14;strokeWidth=2;" vertex="1" parent="1">
          <mxGeometry x="914" y="580" width="160" height="40" as="geometry" />
        </mxCell>
        <mxCell id="Gr86trx3XvMRgJGgivtc-53" style="edgeStyle=orthogonalEdgeStyle;rounded=0;orthogonalLoop=1;jettySize=auto;html=1;entryX=1;entryY=1;entryDx=0;entryDy=0;" edge="1" parent="1" source="Gr86trx3XvMRgJGgivtc-45" target="Gr86trx3XvMRgJGgivtc-9">
          <mxGeometry relative="1" as="geometry" />
        </mxCell>
        <mxCell id="Gr86trx3XvMRgJGgivtc-45" value="right = mid - 1" style="rounded=1;whiteSpace=wrap;html=1;absoluteArcSize=1;arcSize=14;strokeWidth=2;" vertex="1" parent="1">
          <mxGeometry x="1095" y="620" width="160" height="40" as="geometry" />
        </mxCell>
        <mxCell id="Gr86trx3XvMRgJGgivtc-49" style="edgeStyle=orthogonalEdgeStyle;rounded=0;orthogonalLoop=1;jettySize=auto;html=1;entryX=0.5;entryY=0;entryDx=0;entryDy=0;entryPerimeter=0;" edge="1" parent="1" source="Gr86trx3XvMRgJGgivtc-9" target="Gr86trx3XvMRgJGgivtc-24">
          <mxGeometry relative="1" as="geometry" />
        </mxCell>
      </root>
    </mxGraphModel>
  </diagram>
</mxfile>
